<mxfile host="app.diagrams.net" modified="2023-12-25T16:17:44.179Z" agent="Mozilla/5.0 (Windows NT 10.0; Win64; x64) AppleWebKit/537.36 (KHTML, like Gecko) Chrome/120.0.0.0 Safari/537.36" etag="DDLdCFCmSvpiwDT-RVQC" version="22.1.11" type="google">
  <diagram name="第 1 页" id="CPwQCZEWXe2ym4R3WM7a">
    <mxGraphModel grid="1" page="1" gridSize="10" guides="1" tooltips="1" connect="1" arrows="1" fold="1" pageScale="1" pageWidth="827" pageHeight="1169" math="0" shadow="0">
      <root>
        <mxCell id="0" />
        <mxCell id="1" parent="0" />
        <mxCell id="P2Xjov2AFM7ROwXn44B3-1" value=":CarCatelog" style="rounded=0;whiteSpace=wrap;html=1;fillColor=#d5e8d4;strokeColor=#82b366;" vertex="1" parent="1">
          <mxGeometry x="110" y="80" width="90" height="40" as="geometry" />
        </mxCell>
        <mxCell id="P2Xjov2AFM7ROwXn44B3-2" value="selected:Car" style="rounded=0;whiteSpace=wrap;html=1;fillColor=#d5e8d4;strokeColor=#82b366;" vertex="1" parent="1">
          <mxGeometry x="220" y="80" width="90" height="40" as="geometry" />
        </mxCell>
        <mxCell id="P2Xjov2AFM7ROwXn44B3-3" value="管理員" style="shape=umlActor;verticalLabelPosition=bottom;verticalAlign=top;html=1;outlineConnect=0;" vertex="1" parent="1">
          <mxGeometry x="40" y="80" width="30" height="60" as="geometry" />
        </mxCell>
        <mxCell id="P2Xjov2AFM7ROwXn44B3-4" value="" style="rounded=0;whiteSpace=wrap;html=1;fillColor=#d5e8d4;strokeColor=#82b366;" vertex="1" parent="1">
          <mxGeometry x="50" y="170" width="10" height="300" as="geometry" />
        </mxCell>
        <mxCell id="P2Xjov2AFM7ROwXn44B3-5" value="" style="endArrow=none;dashed=1;html=1;rounded=0;entryX=0.5;entryY=1;entryDx=0;entryDy=0;" edge="1" parent="1" source="P2Xjov2AFM7ROwXn44B3-7" target="P2Xjov2AFM7ROwXn44B3-1">
          <mxGeometry width="50" height="50" relative="1" as="geometry">
            <mxPoint x="160" y="470" as="sourcePoint" />
            <mxPoint x="180" y="270" as="targetPoint" />
          </mxGeometry>
        </mxCell>
        <mxCell id="P2Xjov2AFM7ROwXn44B3-6" value="" style="endArrow=none;dashed=1;html=1;rounded=0;entryX=0.5;entryY=1;entryDx=0;entryDy=0;" edge="1" parent="1" source="P2Xjov2AFM7ROwXn44B3-11">
          <mxGeometry width="50" height="50" relative="1" as="geometry">
            <mxPoint x="270" y="470" as="sourcePoint" />
            <mxPoint x="270" y="120" as="targetPoint" />
          </mxGeometry>
        </mxCell>
        <mxCell id="P2Xjov2AFM7ROwXn44B3-8" value="" style="endArrow=none;dashed=1;html=1;rounded=0;entryX=0.5;entryY=1;entryDx=0;entryDy=0;" edge="1" parent="1" source="P2Xjov2AFM7ROwXn44B3-9" target="P2Xjov2AFM7ROwXn44B3-7">
          <mxGeometry width="50" height="50" relative="1" as="geometry">
            <mxPoint x="160" y="470" as="sourcePoint" />
            <mxPoint x="155" y="120" as="targetPoint" />
          </mxGeometry>
        </mxCell>
        <mxCell id="P2Xjov2AFM7ROwXn44B3-13" style="edgeStyle=orthogonalEdgeStyle;rounded=0;orthogonalLoop=1;jettySize=auto;html=1;exitX=1;exitY=0.75;exitDx=0;exitDy=0;entryX=0;entryY=0.25;entryDx=0;entryDy=0;" edge="1" parent="1" source="P2Xjov2AFM7ROwXn44B3-7" target="P2Xjov2AFM7ROwXn44B3-11">
          <mxGeometry relative="1" as="geometry" />
        </mxCell>
        <mxCell id="P2Xjov2AFM7ROwXn44B3-7" value="" style="rounded=0;whiteSpace=wrap;html=1;fillColor=#d5e8d4;strokeColor=#82b366;" vertex="1" parent="1">
          <mxGeometry x="145" y="190" width="20" height="40" as="geometry" />
        </mxCell>
        <mxCell id="P2Xjov2AFM7ROwXn44B3-10" value="" style="endArrow=none;dashed=1;html=1;rounded=0;entryX=0.5;entryY=1;entryDx=0;entryDy=0;" edge="1" parent="1" target="P2Xjov2AFM7ROwXn44B3-9">
          <mxGeometry width="50" height="50" relative="1" as="geometry">
            <mxPoint x="155" y="470" as="sourcePoint" />
            <mxPoint x="155" y="230" as="targetPoint" />
          </mxGeometry>
        </mxCell>
        <mxCell id="P2Xjov2AFM7ROwXn44B3-9" value="" style="rounded=0;whiteSpace=wrap;html=1;fillColor=#d5e8d4;strokeColor=#82b366;" vertex="1" parent="1">
          <mxGeometry x="145" y="400" width="20" height="40" as="geometry" />
        </mxCell>
        <mxCell id="P2Xjov2AFM7ROwXn44B3-12" value="" style="endArrow=none;dashed=1;html=1;rounded=0;entryX=0.5;entryY=1;entryDx=0;entryDy=0;" edge="1" parent="1" target="P2Xjov2AFM7ROwXn44B3-11">
          <mxGeometry width="50" height="50" relative="1" as="geometry">
            <mxPoint x="270" y="470" as="sourcePoint" />
            <mxPoint x="270" y="120" as="targetPoint" />
          </mxGeometry>
        </mxCell>
        <mxCell id="P2Xjov2AFM7ROwXn44B3-11" value="" style="rounded=0;whiteSpace=wrap;html=1;fillColor=#d5e8d4;strokeColor=#82b366;" vertex="1" parent="1">
          <mxGeometry x="260" y="210" width="20" height="40" as="geometry" />
        </mxCell>
        <mxCell id="P2Xjov2AFM7ROwXn44B3-14" value="" style="endArrow=classic;html=1;rounded=0;exitX=1.2;exitY=0.104;exitDx=0;exitDy=0;exitPerimeter=0;entryX=0;entryY=0.25;entryDx=0;entryDy=0;" edge="1" parent="1" source="P2Xjov2AFM7ROwXn44B3-4" target="P2Xjov2AFM7ROwXn44B3-7">
          <mxGeometry width="50" height="50" relative="1" as="geometry">
            <mxPoint x="130" y="320" as="sourcePoint" />
            <mxPoint x="180" y="270" as="targetPoint" />
          </mxGeometry>
        </mxCell>
        <mxCell id="P2Xjov2AFM7ROwXn44B3-15" value="" style="endArrow=classic;html=1;rounded=0;exitX=1.2;exitY=0.104;exitDx=0;exitDy=0;exitPerimeter=0;entryX=0;entryY=0.25;entryDx=0;entryDy=0;" edge="1" parent="1">
          <mxGeometry width="50" height="50" relative="1" as="geometry">
            <mxPoint x="62" y="411" as="sourcePoint" />
            <mxPoint x="145" y="410" as="targetPoint" />
          </mxGeometry>
        </mxCell>
        <mxCell id="P2Xjov2AFM7ROwXn44B3-16" value="" style="shape=umlDestroy;whiteSpace=wrap;html=1;strokeWidth=3;targetShapes=umlLifeline;" vertex="1" parent="1">
          <mxGeometry x="255" y="405" width="30" height="30" as="geometry" />
        </mxCell>
        <mxCell id="P2Xjov2AFM7ROwXn44B3-17" style="edgeStyle=orthogonalEdgeStyle;rounded=0;orthogonalLoop=1;jettySize=auto;html=1;exitX=1;exitY=0.25;exitDx=0;exitDy=0;entryX=0.1;entryY=0.167;entryDx=0;entryDy=0;entryPerimeter=0;" edge="1" parent="1" source="P2Xjov2AFM7ROwXn44B3-9" target="P2Xjov2AFM7ROwXn44B3-16">
          <mxGeometry relative="1" as="geometry" />
        </mxCell>
        <mxCell id="P2Xjov2AFM7ROwXn44B3-18" value="dispaly()" style="text;html=1;align=center;verticalAlign=middle;resizable=0;points=[];autosize=1;strokeColor=none;fillColor=none;" vertex="1" parent="1">
          <mxGeometry x="180" y="195" width="70" height="30" as="geometry" />
        </mxCell>
        <mxCell id="P2Xjov2AFM7ROwXn44B3-19" value="findCar()" style="text;html=1;align=center;verticalAlign=middle;resizable=0;points=[];autosize=1;strokeColor=none;fillColor=none;" vertex="1" parent="1">
          <mxGeometry x="60" y="170" width="70" height="30" as="geometry" />
        </mxCell>
        <mxCell id="P2Xjov2AFM7ROwXn44B3-20" value="deleteCar()" style="text;html=1;align=center;verticalAlign=middle;resizable=0;points=[];autosize=1;strokeColor=none;fillColor=none;" vertex="1" parent="1">
          <mxGeometry x="60" y="388" width="80" height="30" as="geometry" />
        </mxCell>
      </root>
    </mxGraphModel>
  </diagram>
</mxfile>
